<svg width="733" height="462" viewBox="0 0 733 462" fill="none" xmlns="http://www.w3.org/2000/svg">
<g filter="url(#filter0_d_103_19)">
<rect x="466.17" y="58.8775" width="248.776" height="354.103" rx="20" transform="rotate(5 466.17 58.8775)" fill="white"/>
</g>
<path d="M535.904 257.142C534.884 257.052 534.075 256.746 533.479 256.223C532.924 255.703 532.617 255.055 532.557 254.279C532.5 253.46 532.727 252.581 533.237 251.64L553.332 215.815C553.992 214.631 554.727 213.817 555.537 213.374C556.393 212.892 557.331 212.696 558.351 212.785C559.329 212.871 560.176 213.223 560.893 213.843C561.656 214.424 562.259 215.354 562.704 216.635L576.336 255.411C576.718 256.43 576.81 257.337 576.612 258.133C576.414 258.93 575.997 259.536 575.361 259.951C574.729 260.324 573.924 260.468 572.946 260.382C571.756 260.278 570.845 259.92 570.214 259.308C569.628 258.657 569.132 257.715 568.726 256.48L565.424 246.49L568.672 249.023L541.767 246.669L545.405 244.739L540.482 254.009C539.822 255.193 539.17 256.035 538.527 256.536C537.883 257.036 537.009 257.238 535.904 257.142ZM557.404 222.146L546.62 242.596L545.141 240.411L566.436 242.274L564.663 244.175L557.531 222.157L557.404 222.146ZM593.41 262.301C590.817 262.074 588.712 261.419 587.093 260.335C585.479 259.209 584.33 257.652 583.647 255.665C583.007 253.682 582.811 251.266 583.061 248.418L584.41 232.989C584.529 231.629 584.957 230.66 585.693 230.082C586.432 229.462 587.44 229.207 588.715 229.319C589.99 229.43 590.938 229.856 591.558 230.595C592.225 231.296 592.499 232.326 592.38 233.687L591.019 249.243C590.826 251.453 591.129 253.129 591.928 254.27C592.728 255.41 594.105 256.066 596.061 256.237C598.186 256.423 599.992 255.853 601.478 254.527C602.968 253.158 603.82 251.263 604.032 248.84L605.259 234.813C605.378 233.453 605.805 232.484 606.541 231.906C607.281 231.285 608.288 231.031 609.563 231.143C610.838 231.254 611.786 231.68 612.407 232.419C613.073 233.12 613.347 234.15 613.228 235.511L611.12 259.611C610.882 262.331 609.466 263.578 606.874 263.351C605.641 263.243 604.714 262.819 604.094 262.08C603.477 261.298 603.226 260.248 603.342 258.93L603.765 254.085L604.491 256.075C603.397 258.292 601.883 259.937 599.947 261.01C598.054 262.087 595.875 262.517 593.41 262.301Z" fill="black"/>
<g filter="url(#filter1_d_103_19)">
<rect x="224.654" y="50.1995" width="248.776" height="354.103" rx="20" transform="rotate(-10 224.654 50.1995)" fill="white"/>
</g>
<path d="M366.364 233.672C365.061 233.902 363.99 233.722 363.149 233.134C362.302 232.504 361.763 231.537 361.533 230.234L355.121 193.868C354.884 192.523 355.042 191.455 355.596 190.664C356.184 189.824 357.13 189.289 358.432 189.059C359.735 188.83 360.785 189.013 361.583 189.609C362.416 190.155 362.951 191.1 363.188 192.445L369.123 226.102L387.401 222.879C388.536 222.679 389.449 222.821 390.141 223.306C390.875 223.783 391.338 224.568 391.531 225.66C391.723 226.752 391.56 227.669 391.041 228.411C390.556 229.103 389.747 229.549 388.612 229.749L366.364 233.672ZM400.888 228.039C399.627 228.262 398.594 228.054 397.788 227.416C396.983 226.778 396.461 225.787 396.224 224.443L392.145 201.311C391.901 199.925 392.052 198.815 392.598 197.982C393.137 197.107 394.037 196.559 395.297 196.336C396.558 196.114 397.591 196.322 398.397 196.96C399.237 197.548 399.779 198.536 400.024 199.922L404.103 223.053C404.34 224.398 404.189 225.508 403.65 226.383C403.111 227.257 402.19 227.81 400.888 228.039ZM394.264 190.475C392.793 190.734 391.575 190.581 390.608 190.015C389.677 189.399 389.096 188.44 388.866 187.137C388.629 185.793 388.847 184.693 389.519 183.838C390.234 182.975 391.326 182.415 392.797 182.155C394.31 181.888 395.528 182.042 396.452 182.615C397.377 183.189 397.957 184.148 398.194 185.493C398.424 186.795 398.206 187.895 397.541 188.792C396.869 189.647 395.777 190.208 394.264 190.475Z" fill="black"/>
<g filter="url(#filter2_d_103_19)">
<rect x="14" y="119.942" width="248.776" height="354.103" rx="20" transform="rotate(-27 14 119.942)" fill="white"/>
</g>
<path d="M191.003 259.821C189.9 260.383 188.89 260.515 187.972 260.216C187.091 259.899 186.361 259.169 185.78 258.029L168.492 224.099C167.891 222.921 167.721 221.882 167.981 220.983C168.26 220.027 168.875 219.307 169.826 218.823C170.7 218.377 171.433 218.219 172.026 218.348C172.637 218.42 173.44 218.681 174.436 219.131L210.717 236.344L209.234 237.1L195.491 210.127C194.929 209.025 194.779 208.024 195.039 207.125C195.337 206.207 196.038 205.467 197.14 204.905C198.243 204.344 199.234 204.222 200.114 204.539C200.994 204.857 201.715 205.567 202.277 206.669L219.71 240.884C220.253 241.949 220.413 242.921 220.19 243.8C219.968 244.679 219.401 245.352 218.488 245.816C217.614 246.262 216.823 246.449 216.117 246.378C215.448 246.288 214.616 246.018 213.621 245.567L177.397 228.325L178.822 227.599L192.566 254.571C193.147 255.712 193.307 256.732 193.047 257.63C192.786 258.529 192.105 259.259 191.003 259.821ZM243.355 233.29C240.199 234.898 237.181 235.694 234.3 235.677C231.418 235.661 228.798 234.889 226.439 233.361C224.119 231.814 222.203 229.558 220.692 226.593C219.22 223.703 218.521 220.875 218.595 218.108C218.708 215.321 219.5 212.787 220.971 210.505C222.46 208.165 224.555 206.308 227.254 204.933C229.231 203.926 231.163 203.348 233.051 203.2C234.977 203.033 236.801 203.277 238.524 203.931C240.284 204.567 241.895 205.614 243.356 207.072C244.836 208.473 246.128 210.257 247.232 212.423C247.581 213.108 247.605 213.766 247.304 214.398C247.022 214.972 246.444 215.483 245.57 215.928L227.265 225.255L225.173 221.149L241.197 212.984L240.72 214.305C239.829 212.556 238.818 211.228 237.685 210.321C236.59 209.394 235.394 208.878 234.095 208.774C232.816 208.612 231.453 208.899 230.009 209.635C228.412 210.448 227.237 211.526 226.484 212.867C225.75 214.151 225.427 215.633 225.516 217.311C225.624 218.932 226.152 220.674 227.101 222.537L227.305 222.936C228.893 226.053 230.807 228.023 233.046 228.846C235.303 229.611 237.857 229.267 240.709 227.815C241.697 227.311 242.741 226.635 243.842 225.787C244.961 224.882 245.916 223.844 246.709 222.674C247.275 221.811 247.881 221.263 248.528 221.029C249.156 220.757 249.738 220.724 250.273 220.93C250.847 221.116 251.317 221.475 251.684 222.007C252.031 222.5 252.198 223.11 252.185 223.835C252.209 224.541 251.986 225.277 251.514 226.044C250.61 227.558 249.39 228.97 247.854 230.279C246.337 231.531 244.837 232.535 243.355 233.29Z" fill="black"/>
<defs>
<filter id="filter0_d_103_19" x="416.974" y="50.5433" width="315.36" height="411.107" filterUnits="userSpaceOnUse" color-interpolation-filters="sRGB">
<feFlood flood-opacity="0" result="BackgroundImageFix"/>
<feColorMatrix in="SourceAlpha" type="matrix" values="0 0 0 0 0 0 0 0 0 0 0 0 0 0 0 0 0 0 127 0" result="hardAlpha"/>
<feOffset dy="10"/>
<feGaussianBlur stdDeviation="10"/>
<feComposite in2="hardAlpha" operator="out"/>
<feColorMatrix type="matrix" values="0 0 0 0 0 0 0 0 0 0 0 0 0 0 0 0 0 0 0.15 0"/>
<feBlend mode="normal" in2="BackgroundImageFix" result="effect1_dropShadow_103_19"/>
<feBlend mode="normal" in="SourceGraphic" in2="effect1_dropShadow_103_19" result="shape"/>
</filter>
<filter id="filter1_d_103_19" x="207.82" y="0.165771" width="340.155" height="425.592" filterUnits="userSpaceOnUse" color-interpolation-filters="sRGB">
<feFlood flood-opacity="0" result="BackgroundImageFix"/>
<feColorMatrix in="SourceAlpha" type="matrix" values="0 0 0 0 0 0 0 0 0 0 0 0 0 0 0 0 0 0 127 0" result="hardAlpha"/>
<feOffset dy="10"/>
<feGaussianBlur stdDeviation="10"/>
<feComposite in2="hardAlpha" operator="out"/>
<feColorMatrix type="matrix" values="0 0 0 0 0 0 0 0 0 0 0 0 0 0 0 0 0 0 0.15 0"/>
<feBlend mode="normal" in2="BackgroundImageFix" result="effect1_dropShadow_103_19"/>
<feBlend mode="normal" in="SourceGraphic" in2="effect1_dropShadow_103_19" result="shape"/>
</filter>
<filter id="filter2_d_103_19" x="0.89566" y="3.89569" width="408.629" height="454.659" filterUnits="userSpaceOnUse" color-interpolation-filters="sRGB">
<feFlood flood-opacity="0" result="BackgroundImageFix"/>
<feColorMatrix in="SourceAlpha" type="matrix" values="0 0 0 0 0 0 0 0 0 0 0 0 0 0 0 0 0 0 127 0" result="hardAlpha"/>
<feOffset dy="10"/>
<feGaussianBlur stdDeviation="10"/>
<feComposite in2="hardAlpha" operator="out"/>
<feColorMatrix type="matrix" values="0 0 0 0 0 0 0 0 0 0 0 0 0 0 0 0 0 0 0.15 0"/>
<feBlend mode="normal" in2="BackgroundImageFix" result="effect1_dropShadow_103_19"/>
<feBlend mode="normal" in="SourceGraphic" in2="effect1_dropShadow_103_19" result="shape"/>
</filter>
</defs>
</svg>
