<svg width="2000" height="500" viewBox="0 0 2000 500" fill="none" xmlns="http://www.w3.org/2000/svg">
<g clip-path="url(#clip0_101_3)">
<rect width="2000" height="500" fill="url(#paint0_linear_101_3)"/>
<path d="M838.744 213.96C834.584 213.96 831.096 213.256 828.28 211.848C825.528 210.44 823.48 208.392 822.136 205.704C820.792 202.952 820.12 199.56 820.12 195.528V175.08H815.128C813.592 175.08 812.408 174.696 811.576 173.928C810.744 173.096 810.328 171.976 810.328 170.568C810.328 169.096 810.744 167.976 811.576 167.208C812.408 166.44 813.592 166.056 815.128 166.056H820.12V157.32C820.12 155.336 820.632 153.832 821.656 152.808C822.744 151.784 824.248 151.272 826.168 151.272C828.088 151.272 829.56 151.784 830.584 152.808C831.608 153.832 832.12 155.336 832.12 157.32V166.056H842.296C843.832 166.056 845.016 166.44 845.848 167.208C846.68 167.976 847.096 169.096 847.096 170.568C847.096 171.976 846.68 173.096 845.848 173.928C845.016 174.696 843.832 175.08 842.296 175.08H832.12V194.856C832.12 197.928 832.792 200.232 834.136 201.768C835.48 203.304 837.656 204.072 840.664 204.072C841.752 204.072 842.712 203.976 843.544 203.784C844.376 203.592 845.112 203.464 845.752 203.4C846.52 203.336 847.16 203.592 847.672 204.168C848.184 204.68 848.44 205.768 848.44 207.432C848.44 208.712 848.216 209.864 847.768 210.888C847.384 211.848 846.648 212.52 845.56 212.904C844.728 213.16 843.64 213.384 842.296 213.576C840.952 213.832 839.768 213.96 838.744 213.96ZM861.255 213.768C859.335 213.768 857.863 213.256 856.839 212.232C855.815 211.144 855.303 209.608 855.303 207.624V150.6C855.303 148.616 855.815 147.112 856.839 146.088C857.863 145.064 859.335 144.552 861.255 144.552C863.175 144.552 864.647 145.064 865.671 146.088C866.759 147.112 867.303 148.616 867.303 150.6V175.464H865.959C867.367 172.072 869.543 169.512 872.487 167.784C875.495 165.992 878.887 165.096 882.663 165.096C886.439 165.096 889.543 165.8 891.975 167.208C894.407 168.616 896.231 170.76 897.447 173.64C898.663 176.456 899.271 180.04 899.271 184.392V207.624C899.271 209.608 898.759 211.144 897.735 212.232C896.711 213.256 895.239 213.768 893.319 213.768C891.399 213.768 889.895 213.256 888.807 212.232C887.783 211.144 887.271 209.608 887.271 207.624V184.968C887.271 181.32 886.567 178.664 885.159 177C883.815 175.336 881.703 174.504 878.823 174.504C875.303 174.504 872.487 175.624 870.375 177.864C868.327 180.04 867.303 182.952 867.303 186.6V207.624C867.303 211.72 865.287 213.768 861.255 213.768ZM934.595 213.96C929.283 213.96 924.707 212.968 920.867 210.984C917.027 209 914.051 206.184 911.939 202.536C909.891 198.888 908.867 194.568 908.867 189.576C908.867 184.712 909.859 180.456 911.843 176.808C913.891 173.16 916.675 170.312 920.195 168.264C923.779 166.152 927.843 165.096 932.387 165.096C935.715 165.096 938.691 165.64 941.315 166.728C944.003 167.816 946.275 169.384 948.131 171.432C950.051 173.48 951.491 175.976 952.451 178.92C953.475 181.8 953.987 185.064 953.987 188.712C953.987 189.864 953.571 190.76 952.739 191.4C951.971 191.976 950.851 192.264 949.379 192.264H918.563V185.352H945.539L944.003 186.792C944.003 183.848 943.555 181.384 942.659 179.4C941.827 177.416 940.579 175.912 938.915 174.888C937.315 173.8 935.299 173.256 932.867 173.256C930.179 173.256 927.875 173.896 925.955 175.176C924.099 176.392 922.659 178.152 921.635 180.456C920.675 182.696 920.195 185.384 920.195 188.52V189.192C920.195 194.44 921.411 198.376 923.843 201C926.339 203.56 929.987 204.84 934.787 204.84C936.451 204.84 938.307 204.648 940.355 204.264C942.467 203.816 944.451 203.08 946.307 202.056C947.651 201.288 948.835 200.968 949.859 201.096C950.883 201.16 951.683 201.512 952.259 202.152C952.899 202.792 953.283 203.592 953.411 204.552C953.539 205.448 953.347 206.376 952.835 207.336C952.387 208.296 951.587 209.128 950.435 209.832C948.195 211.24 945.603 212.296 942.659 213C939.779 213.64 937.091 213.96 934.595 213.96ZM998.769 213.768C996.849 213.768 995.345 213.256 994.257 212.232C993.233 211.144 992.721 209.608 992.721 207.624V175.08H988.305C986.769 175.08 985.585 174.696 984.753 173.928C983.921 173.096 983.505 171.976 983.505 170.568C983.505 169.096 983.921 167.976 984.753 167.208C985.585 166.44 986.769 166.056 988.305 166.056H996.177L992.721 169.224V165.96C992.721 159.368 994.385 154.44 997.713 151.176C1001.04 147.848 1005.84 145.896 1012.11 145.32L1015.38 145.032C1016.66 144.904 1017.68 145.128 1018.45 145.704C1019.22 146.216 1019.73 146.92 1019.98 147.816C1020.24 148.648 1020.27 149.512 1020.08 150.408C1019.89 151.304 1019.47 152.104 1018.83 152.808C1018.26 153.448 1017.49 153.8 1016.53 153.864L1015.18 153.96C1011.54 154.216 1008.88 155.144 1007.22 156.744C1005.55 158.344 1004.72 160.776 1004.72 164.04V167.592L1003.18 166.056H1012.88C1014.42 166.056 1015.6 166.44 1016.43 167.208C1017.26 167.976 1017.68 169.096 1017.68 170.568C1017.68 171.976 1017.26 173.096 1016.43 173.928C1015.6 174.696 1014.42 175.08 1012.88 175.08H1004.72V207.624C1004.72 211.72 1002.74 213.768 998.769 213.768ZM1039.51 213.96C1036.12 213.96 1033.08 213.32 1030.39 212.04C1027.76 210.696 1025.68 208.904 1024.15 206.664C1022.68 204.424 1021.94 201.896 1021.94 199.08C1021.94 195.624 1022.84 192.904 1024.63 190.92C1026.42 188.872 1029.33 187.4 1033.36 186.504C1037.4 185.608 1042.8 185.16 1049.59 185.16H1054.39V192.072H1049.68C1045.72 192.072 1042.55 192.264 1040.18 192.648C1037.81 193.032 1036.12 193.704 1035.09 194.664C1034.13 195.56 1033.65 196.84 1033.65 198.504C1033.65 200.616 1034.39 202.344 1035.86 203.688C1037.33 205.032 1039.38 205.704 1042 205.704C1044.12 205.704 1045.97 205.224 1047.57 204.264C1049.24 203.24 1050.55 201.864 1051.51 200.136C1052.47 198.408 1052.95 196.424 1052.95 194.184V183.144C1052.95 179.944 1052.24 177.64 1050.84 176.232C1049.43 174.824 1047.06 174.12 1043.73 174.12C1041.88 174.12 1039.86 174.344 1037.68 174.792C1035.57 175.24 1033.33 176.008 1030.96 177.096C1029.75 177.672 1028.66 177.832 1027.7 177.576C1026.8 177.32 1026.1 176.808 1025.59 176.04C1025.08 175.208 1024.82 174.312 1024.82 173.352C1024.82 172.392 1025.08 171.464 1025.59 170.568C1026.1 169.608 1026.96 168.904 1028.18 168.456C1031.12 167.24 1033.94 166.376 1036.63 165.864C1039.38 165.352 1041.88 165.096 1044.12 165.096C1048.72 165.096 1052.5 165.8 1055.44 167.208C1058.45 168.616 1060.69 170.76 1062.16 173.64C1063.64 176.456 1064.37 180.104 1064.37 184.584V207.624C1064.37 209.608 1063.89 211.144 1062.93 212.232C1061.97 213.256 1060.6 213.768 1058.8 213.768C1057.01 213.768 1055.6 213.256 1054.58 212.232C1053.62 211.144 1053.14 209.608 1053.14 207.624V203.016H1053.91C1053.46 205.256 1052.56 207.208 1051.22 208.872C1049.94 210.472 1048.31 211.72 1046.32 212.616C1044.34 213.512 1042.07 213.96 1039.51 213.96ZM1093.74 213.96C1090.98 213.96 1088.07 213.672 1085 213.096C1081.93 212.52 1079.18 211.528 1076.74 210.12C1075.72 209.48 1074.98 208.744 1074.54 207.912C1074.15 207.016 1073.99 206.152 1074.06 205.32C1074.18 204.424 1074.5 203.656 1075.02 203.016C1075.59 202.376 1076.3 201.96 1077.13 201.768C1078.02 201.576 1078.98 201.736 1080.01 202.248C1082.57 203.464 1084.97 204.328 1087.21 204.84C1089.45 205.288 1091.66 205.512 1093.83 205.512C1096.9 205.512 1099.18 205 1100.65 203.976C1102.18 202.888 1102.95 201.48 1102.95 199.752C1102.95 198.28 1102.44 197.16 1101.42 196.392C1100.46 195.56 1098.98 194.952 1097 194.568L1087.4 192.744C1083.43 191.976 1080.39 190.536 1078.28 188.424C1076.23 186.248 1075.21 183.464 1075.21 180.072C1075.21 177 1076.04 174.344 1077.7 172.104C1079.43 169.864 1081.8 168.136 1084.81 166.92C1087.82 165.704 1091.27 165.096 1095.18 165.096C1097.99 165.096 1100.62 165.416 1103.05 166.056C1105.54 166.632 1107.94 167.56 1110.25 168.84C1111.21 169.352 1111.85 170.024 1112.17 170.856C1112.55 171.688 1112.65 172.552 1112.46 173.448C1112.26 174.28 1111.88 175.048 1111.3 175.752C1110.73 176.392 1109.99 176.808 1109.1 177C1108.26 177.128 1107.3 176.936 1106.22 176.424C1104.23 175.4 1102.31 174.664 1100.46 174.216C1098.66 173.768 1096.94 173.544 1095.27 173.544C1092.14 173.544 1089.8 174.088 1088.26 175.176C1086.79 176.264 1086.06 177.704 1086.06 179.496C1086.06 180.84 1086.5 181.96 1087.4 182.856C1088.3 183.752 1089.67 184.36 1091.53 184.68L1101.13 186.504C1105.29 187.272 1108.42 188.68 1110.54 190.728C1112.71 192.776 1113.8 195.528 1113.8 198.984C1113.8 203.656 1111.98 207.336 1108.33 210.024C1104.68 212.648 1099.82 213.96 1093.74 213.96ZM1144.46 213.96C1140.3 213.96 1136.81 213.256 1134 211.848C1131.25 210.44 1129.2 208.392 1127.85 205.704C1126.51 202.952 1125.84 199.56 1125.84 195.528V175.08H1120.85C1119.31 175.08 1118.13 174.696 1117.29 173.928C1116.46 173.096 1116.05 171.976 1116.05 170.568C1116.05 169.096 1116.46 167.976 1117.29 167.208C1118.13 166.44 1119.31 166.056 1120.85 166.056H1125.84V157.32C1125.84 155.336 1126.35 153.832 1127.37 152.808C1128.46 151.784 1129.97 151.272 1131.89 151.272C1133.81 151.272 1135.28 151.784 1136.3 152.808C1137.33 153.832 1137.84 155.336 1137.84 157.32V166.056H1148.01C1149.55 166.056 1150.73 166.44 1151.57 167.208C1152.4 167.976 1152.81 169.096 1152.81 170.568C1152.81 171.976 1152.4 173.096 1151.57 173.928C1150.73 174.696 1149.55 175.08 1148.01 175.08H1137.84V194.856C1137.84 197.928 1138.51 200.232 1139.85 201.768C1141.2 203.304 1143.37 204.072 1146.38 204.072C1147.47 204.072 1148.43 203.976 1149.26 203.784C1150.09 203.592 1150.83 203.464 1151.47 203.4C1152.24 203.336 1152.88 203.592 1153.39 204.168C1153.9 204.68 1154.16 205.768 1154.16 207.432C1154.16 208.712 1153.93 209.864 1153.49 210.888C1153.1 211.848 1152.37 212.52 1151.28 212.904C1150.45 213.16 1149.36 213.384 1148.01 213.576C1146.67 213.832 1145.49 213.96 1144.46 213.96ZM1182.47 213.96C1177.16 213.96 1172.58 212.968 1168.74 210.984C1164.9 209 1161.93 206.184 1159.81 202.536C1157.77 198.888 1156.74 194.568 1156.74 189.576C1156.74 184.712 1157.73 180.456 1159.72 176.808C1161.77 173.16 1164.55 170.312 1168.07 168.264C1171.65 166.152 1175.72 165.096 1180.26 165.096C1183.59 165.096 1186.57 165.64 1189.19 166.728C1191.88 167.816 1194.15 169.384 1196.01 171.432C1197.93 173.48 1199.37 175.976 1200.33 178.92C1201.35 181.8 1201.86 185.064 1201.86 188.712C1201.86 189.864 1201.45 190.76 1200.61 191.4C1199.85 191.976 1198.73 192.264 1197.25 192.264H1166.44V185.352H1193.41L1191.88 186.792C1191.88 183.848 1191.43 181.384 1190.53 179.4C1189.7 177.416 1188.45 175.912 1186.79 174.888C1185.19 173.8 1183.17 173.256 1180.74 173.256C1178.05 173.256 1175.75 173.896 1173.83 175.176C1171.97 176.392 1170.53 178.152 1169.51 180.456C1168.55 182.696 1168.07 185.384 1168.07 188.52V189.192C1168.07 194.44 1169.29 198.376 1171.72 201C1174.21 203.56 1177.86 204.84 1182.66 204.84C1184.33 204.84 1186.18 204.648 1188.23 204.264C1190.34 203.816 1192.33 203.08 1194.18 202.056C1195.53 201.288 1196.71 200.968 1197.73 201.096C1198.76 201.16 1199.56 201.512 1200.13 202.152C1200.77 202.792 1201.16 203.592 1201.29 204.552C1201.41 205.448 1201.22 206.376 1200.71 207.336C1200.26 208.296 1199.46 209.128 1198.31 209.832C1196.07 211.24 1193.48 212.296 1190.53 213C1187.65 213.64 1184.97 213.96 1182.47 213.96ZM1228.55 213.96C1225.8 213.96 1222.89 213.672 1219.81 213.096C1216.74 212.52 1213.99 211.528 1211.56 210.12C1210.53 209.48 1209.8 208.744 1209.35 207.912C1208.97 207.016 1208.81 206.152 1208.87 205.32C1209 204.424 1209.32 203.656 1209.83 203.016C1210.41 202.376 1211.11 201.96 1211.94 201.768C1212.84 201.576 1213.8 201.736 1214.82 202.248C1217.38 203.464 1219.78 204.328 1222.02 204.84C1224.26 205.288 1226.47 205.512 1228.65 205.512C1231.72 205.512 1233.99 205 1235.46 203.976C1237 202.888 1237.77 201.48 1237.77 199.752C1237.77 198.28 1237.25 197.16 1236.23 196.392C1235.27 195.56 1233.8 194.952 1231.81 194.568L1222.21 192.744C1218.25 191.976 1215.21 190.536 1213.09 188.424C1211.05 186.248 1210.02 183.464 1210.02 180.072C1210.02 177 1210.85 174.344 1212.52 172.104C1214.25 169.864 1216.61 168.136 1219.62 166.92C1222.63 165.704 1226.09 165.096 1229.99 165.096C1232.81 165.096 1235.43 165.416 1237.86 166.056C1240.36 166.632 1242.76 167.56 1245.06 168.84C1246.02 169.352 1246.66 170.024 1246.98 170.856C1247.37 171.688 1247.46 172.552 1247.27 173.448C1247.08 174.28 1246.69 175.048 1246.12 175.752C1245.54 176.392 1244.81 176.808 1243.91 177C1243.08 177.128 1242.12 176.936 1241.03 176.424C1239.05 175.4 1237.13 174.664 1235.27 174.216C1233.48 173.768 1231.75 173.544 1230.09 173.544C1226.95 173.544 1224.61 174.088 1223.08 175.176C1221.61 176.264 1220.87 177.704 1220.87 179.496C1220.87 180.84 1221.32 181.96 1222.21 182.856C1223.11 183.752 1224.49 184.36 1226.34 184.68L1235.94 186.504C1240.1 187.272 1243.24 188.68 1245.35 190.728C1247.53 192.776 1248.61 195.528 1248.61 198.984C1248.61 203.656 1246.79 207.336 1243.14 210.024C1239.49 212.648 1234.63 213.96 1228.55 213.96ZM1279.28 213.96C1275.12 213.96 1271.63 213.256 1268.81 211.848C1266.06 210.44 1264.01 208.392 1262.67 205.704C1261.32 202.952 1260.65 199.56 1260.65 195.528V175.08H1255.66C1254.12 175.08 1252.94 174.696 1252.11 173.928C1251.28 173.096 1250.86 171.976 1250.86 170.568C1250.86 169.096 1251.28 167.976 1252.11 167.208C1252.94 166.44 1254.12 166.056 1255.66 166.056H1260.65V157.32C1260.65 155.336 1261.16 153.832 1262.19 152.808C1263.28 151.784 1264.78 151.272 1266.7 151.272C1268.62 151.272 1270.09 151.784 1271.12 152.808C1272.14 153.832 1272.65 155.336 1272.65 157.32V166.056H1282.83C1284.36 166.056 1285.55 166.44 1286.38 167.208C1287.21 167.976 1287.63 169.096 1287.63 170.568C1287.63 171.976 1287.21 173.096 1286.38 173.928C1285.55 174.696 1284.36 175.08 1282.83 175.08H1272.65V194.856C1272.65 197.928 1273.32 200.232 1274.67 201.768C1276.01 203.304 1278.19 204.072 1281.2 204.072C1282.28 204.072 1283.24 203.976 1284.08 203.784C1284.91 203.592 1285.64 203.464 1286.28 203.4C1287.05 203.336 1287.69 203.592 1288.2 204.168C1288.72 204.68 1288.97 205.768 1288.97 207.432C1288.97 208.712 1288.75 209.864 1288.3 210.888C1287.92 211.848 1287.18 212.52 1286.09 212.904C1285.26 213.16 1284.17 213.384 1282.83 213.576C1281.48 213.832 1280.3 213.96 1279.28 213.96ZM1338.82 213.768C1337.22 213.768 1335.85 213.384 1334.69 212.616C1333.54 211.784 1332.61 210.504 1331.91 208.776L1317.99 173.256C1317.41 171.72 1317.22 170.376 1317.41 169.224C1317.67 168.008 1318.28 167.048 1319.24 166.344C1320.2 165.64 1321.48 165.288 1323.08 165.288C1324.49 165.288 1325.64 165.64 1326.53 166.344C1327.43 166.984 1328.2 168.232 1328.84 170.088L1340.45 202.056H1338.25L1350.25 169.32C1350.76 167.912 1351.43 166.888 1352.26 166.248C1353.16 165.608 1354.31 165.288 1355.72 165.288C1357.13 165.288 1358.28 165.64 1359.17 166.344C1360.07 166.984 1360.74 167.976 1361.19 169.32L1373 202.056H1370.98L1382.69 169.8C1383.33 168.072 1384.13 166.888 1385.09 166.248C1386.12 165.608 1387.24 165.288 1388.45 165.288C1389.99 165.288 1391.17 165.672 1392.01 166.44C1392.84 167.208 1393.32 168.2 1393.45 169.416C1393.57 170.568 1393.35 171.848 1392.77 173.256L1378.95 208.776C1378.31 210.44 1377.38 211.688 1376.17 212.52C1375.01 213.352 1373.64 213.768 1372.04 213.768C1370.44 213.768 1369.03 213.352 1367.81 212.52C1366.66 211.688 1365.77 210.44 1365.13 208.776L1352.55 175.464H1358.02L1345.73 208.68C1345.09 210.408 1344.2 211.688 1343.05 212.52C1341.89 213.352 1340.49 213.768 1338.82 213.768ZM1417.04 213.96C1413.65 213.96 1410.61 213.32 1407.92 212.04C1405.3 210.696 1403.22 208.904 1401.68 206.664C1400.21 204.424 1399.47 201.896 1399.47 199.08C1399.47 195.624 1400.37 192.904 1402.16 190.92C1403.95 188.872 1406.86 187.4 1410.9 186.504C1414.93 185.608 1420.34 185.16 1427.12 185.16H1431.92V192.072H1427.22C1423.25 192.072 1420.08 192.264 1417.71 192.648C1415.34 193.032 1413.65 193.704 1412.62 194.664C1411.66 195.56 1411.18 196.84 1411.18 198.504C1411.18 200.616 1411.92 202.344 1413.39 203.688C1414.86 205.032 1416.91 205.704 1419.54 205.704C1421.65 205.704 1423.5 205.224 1425.1 204.264C1426.77 203.24 1428.08 201.864 1429.04 200.136C1430 198.408 1430.48 196.424 1430.48 194.184V183.144C1430.48 179.944 1429.78 177.64 1428.37 176.232C1426.96 174.824 1424.59 174.12 1421.26 174.12C1419.41 174.12 1417.39 174.344 1415.22 174.792C1413.1 175.24 1410.86 176.008 1408.5 177.096C1407.28 177.672 1406.19 177.832 1405.23 177.576C1404.34 177.32 1403.63 176.808 1403.12 176.04C1402.61 175.208 1402.35 174.312 1402.35 173.352C1402.35 172.392 1402.61 171.464 1403.12 170.568C1403.63 169.608 1404.5 168.904 1405.71 168.456C1408.66 167.24 1411.47 166.376 1414.16 165.864C1416.91 165.352 1419.41 165.096 1421.65 165.096C1426.26 165.096 1430.03 165.8 1432.98 167.208C1435.98 168.616 1438.22 170.76 1439.7 173.64C1441.17 176.456 1441.9 180.104 1441.9 184.584V207.624C1441.9 209.608 1441.42 211.144 1440.46 212.232C1439.5 213.256 1438.13 213.768 1436.34 213.768C1434.54 213.768 1433.14 213.256 1432.11 212.232C1431.15 211.144 1430.67 209.608 1430.67 207.624V203.016H1431.44C1430.99 205.256 1430.1 207.208 1428.75 208.872C1427.47 210.472 1425.84 211.72 1423.86 212.616C1421.87 213.512 1419.6 213.96 1417.04 213.96ZM1465.52 231.048C1464.11 231.048 1462.96 230.664 1462.06 229.896C1461.17 229.192 1460.62 228.232 1460.43 227.016C1460.3 225.8 1460.53 224.52 1461.1 223.176L1467.63 208.68V213.672L1450.16 173.256C1449.58 171.848 1449.39 170.536 1449.58 169.32C1449.78 168.104 1450.35 167.144 1451.31 166.44C1452.34 165.672 1453.71 165.288 1455.44 165.288C1456.91 165.288 1458.1 165.64 1458.99 166.344C1459.89 166.984 1460.69 168.232 1461.39 170.088L1474.35 202.44H1471.47L1484.72 169.992C1485.42 168.2 1486.26 166.984 1487.22 166.344C1488.18 165.64 1489.46 165.288 1491.06 165.288C1492.46 165.288 1493.58 165.672 1494.42 166.44C1495.25 167.144 1495.76 168.104 1495.95 169.32C1496.14 170.472 1495.92 171.752 1495.28 173.16L1471.95 226.44C1471.12 228.232 1470.22 229.448 1469.26 230.088C1468.3 230.728 1467.06 231.048 1465.52 231.048ZM1551.71 213.96C1547.55 213.96 1544.06 213.256 1541.25 211.848C1538.5 210.44 1536.45 208.392 1535.1 205.704C1533.76 202.952 1533.09 199.56 1533.09 195.528V175.08H1528.1C1526.56 175.08 1525.38 174.696 1524.54 173.928C1523.71 173.096 1523.3 171.976 1523.3 170.568C1523.3 169.096 1523.71 167.976 1524.54 167.208C1525.38 166.44 1526.56 166.056 1528.1 166.056H1533.09V157.32C1533.09 155.336 1533.6 153.832 1534.62 152.808C1535.71 151.784 1537.22 151.272 1539.14 151.272C1541.06 151.272 1542.53 151.784 1543.55 152.808C1544.58 153.832 1545.09 155.336 1545.09 157.32V166.056H1555.26C1556.8 166.056 1557.98 166.44 1558.82 167.208C1559.65 167.976 1560.06 169.096 1560.06 170.568C1560.06 171.976 1559.65 173.096 1558.82 173.928C1557.98 174.696 1556.8 175.08 1555.26 175.08H1545.09V194.856C1545.09 197.928 1545.76 200.232 1547.1 201.768C1548.45 203.304 1550.62 204.072 1553.63 204.072C1554.72 204.072 1555.68 203.976 1556.51 203.784C1557.34 203.592 1558.08 203.464 1558.72 203.4C1559.49 203.336 1560.13 203.592 1560.64 204.168C1561.15 204.68 1561.41 205.768 1561.41 207.432C1561.41 208.712 1561.18 209.864 1560.74 210.888C1560.35 211.848 1559.62 212.52 1558.53 212.904C1557.7 213.16 1556.61 213.384 1555.26 213.576C1553.92 213.832 1552.74 213.96 1551.71 213.96ZM1587.99 213.96C1583.13 213.96 1578.9 212.968 1575.32 210.984C1571.74 209 1568.95 206.184 1566.97 202.536C1564.98 198.824 1563.99 194.472 1563.99 189.48C1563.99 185.704 1564.54 182.344 1565.62 179.4C1566.78 176.392 1568.41 173.832 1570.52 171.72C1572.63 169.544 1575.16 167.912 1578.1 166.824C1581.05 165.672 1584.34 165.096 1587.99 165.096C1592.86 165.096 1597.08 166.088 1600.66 168.072C1604.25 170.056 1607.03 172.872 1609.02 176.52C1611 180.168 1611.99 184.488 1611.99 189.48C1611.99 193.256 1611.42 196.648 1610.26 199.656C1609.18 202.664 1607.58 205.256 1605.46 207.432C1603.35 209.544 1600.82 211.176 1597.88 212.328C1594.94 213.416 1591.64 213.96 1587.99 213.96ZM1587.99 204.84C1590.36 204.84 1592.44 204.264 1594.23 203.112C1596.02 201.96 1597.4 200.264 1598.36 198.024C1599.38 195.72 1599.9 192.872 1599.9 189.48C1599.9 184.36 1598.81 180.552 1596.63 178.056C1594.46 175.496 1591.58 174.216 1587.99 174.216C1585.62 174.216 1583.54 174.792 1581.75 175.944C1579.96 177.032 1578.55 178.728 1577.53 181.032C1576.57 183.272 1576.09 186.088 1576.09 189.48C1576.09 194.536 1577.18 198.376 1579.35 201C1581.53 203.56 1584.41 204.84 1587.99 204.84ZM1654.1 213.768C1652.18 213.768 1650.71 213.256 1649.69 212.232C1648.66 211.144 1648.15 209.608 1648.15 207.624V171.336C1648.15 169.352 1648.66 167.848 1649.69 166.824C1650.71 165.8 1652.15 165.288 1654.01 165.288C1655.86 165.288 1657.3 165.8 1658.33 166.824C1659.35 167.848 1659.86 169.352 1659.86 171.336V178.344L1658.81 175.464C1660.09 172.264 1662.07 169.736 1664.76 167.88C1667.45 166.024 1670.65 165.096 1674.36 165.096C1678.13 165.096 1681.24 165.992 1683.67 167.784C1686.1 169.576 1687.8 172.328 1688.76 176.04H1687.41C1688.69 172.648 1690.81 169.992 1693.75 168.072C1696.69 166.088 1700.09 165.096 1703.93 165.096C1707.51 165.096 1710.45 165.8 1712.76 167.208C1715.13 168.616 1716.89 170.76 1718.04 173.64C1719.19 176.456 1719.77 180.04 1719.77 184.392V207.624C1719.77 209.608 1719.22 211.144 1718.13 212.232C1717.11 213.256 1715.64 213.768 1713.72 213.768C1711.8 213.768 1710.33 213.256 1709.3 212.232C1708.28 211.144 1707.77 209.608 1707.77 207.624V184.872C1707.77 181.288 1707.16 178.664 1705.94 177C1704.79 175.336 1702.81 174.504 1699.99 174.504C1696.85 174.504 1694.39 175.624 1692.6 177.864C1690.81 180.04 1689.91 183.08 1689.91 186.984V207.624C1689.91 209.608 1689.4 211.144 1688.37 212.232C1687.35 213.256 1685.88 213.768 1683.96 213.768C1682.04 213.768 1680.53 213.256 1679.45 212.232C1678.42 211.144 1677.91 209.608 1677.91 207.624V184.872C1677.91 181.288 1677.3 178.664 1676.09 177C1674.93 175.336 1672.98 174.504 1670.23 174.504C1667.09 174.504 1664.63 175.624 1662.84 177.864C1661.05 180.04 1660.15 183.08 1660.15 186.984V207.624C1660.15 211.72 1658.13 213.768 1654.1 213.768ZM1747.6 213.96C1744.21 213.96 1741.17 213.32 1738.48 212.04C1735.86 210.696 1733.78 208.904 1732.24 206.664C1730.77 204.424 1730.03 201.896 1730.03 199.08C1730.03 195.624 1730.93 192.904 1732.72 190.92C1734.51 188.872 1737.43 187.4 1741.46 186.504C1745.49 185.608 1750.9 185.16 1757.68 185.16H1762.48V192.072H1757.78C1753.81 192.072 1750.64 192.264 1748.27 192.648C1745.91 193.032 1744.21 193.704 1743.19 194.664C1742.23 195.56 1741.75 196.84 1741.75 198.504C1741.75 200.616 1742.48 202.344 1743.95 203.688C1745.43 205.032 1747.47 205.704 1750.1 205.704C1752.21 205.704 1754.07 205.224 1755.67 204.264C1757.33 203.24 1758.64 201.864 1759.6 200.136C1760.56 198.408 1761.04 196.424 1761.04 194.184V183.144C1761.04 179.944 1760.34 177.64 1758.93 176.232C1757.52 174.824 1755.15 174.12 1751.83 174.12C1749.97 174.12 1747.95 174.344 1745.78 174.792C1743.67 175.24 1741.43 176.008 1739.06 177.096C1737.84 177.672 1736.75 177.832 1735.79 177.576C1734.9 177.32 1734.19 176.808 1733.68 176.04C1733.17 175.208 1732.91 174.312 1732.91 173.352C1732.91 172.392 1733.17 171.464 1733.68 170.568C1734.19 169.608 1735.06 168.904 1736.27 168.456C1739.22 167.24 1742.03 166.376 1744.72 165.864C1747.47 165.352 1749.97 165.096 1752.21 165.096C1756.82 165.096 1760.59 165.8 1763.54 167.208C1766.55 168.616 1768.79 170.76 1770.26 173.64C1771.73 176.456 1772.47 180.104 1772.47 184.584V207.624C1772.47 209.608 1771.99 211.144 1771.03 212.232C1770.07 213.256 1768.69 213.768 1766.9 213.768C1765.11 213.768 1763.7 213.256 1762.67 212.232C1761.71 211.144 1761.23 209.608 1761.23 207.624V203.016H1762C1761.55 205.256 1760.66 207.208 1759.31 208.872C1758.03 210.472 1756.4 211.72 1754.42 212.616C1752.43 213.512 1750.16 213.96 1747.6 213.96ZM1790.6 213.768C1788.68 213.768 1787.21 213.256 1786.18 212.232C1785.16 211.144 1784.65 209.608 1784.65 207.624V150.6C1784.65 148.616 1785.16 147.112 1786.18 146.088C1787.21 145.064 1788.68 144.552 1790.6 144.552C1792.52 144.552 1793.99 145.064 1795.01 146.088C1796.1 147.112 1796.65 148.616 1796.65 150.6V186.024H1796.84L1812.68 169.32C1813.96 168.04 1815.08 167.048 1816.04 166.344C1817 165.64 1818.31 165.288 1819.97 165.288C1821.64 165.288 1822.89 165.736 1823.72 166.632C1824.61 167.464 1825.06 168.488 1825.06 169.704C1825.06 170.92 1824.49 172.136 1823.33 173.352L1806.63 191.016V186.024L1824.97 205.8C1826.12 207.016 1826.63 208.264 1826.5 209.544C1826.44 210.76 1825.93 211.784 1824.97 212.616C1824.01 213.384 1822.79 213.768 1821.32 213.768C1819.53 213.768 1818.09 213.416 1817 212.712C1815.97 212.008 1814.82 210.952 1813.54 209.544L1796.84 192.072H1796.65V207.624C1796.65 211.72 1794.63 213.768 1790.6 213.768ZM1858.31 213.96C1853 213.96 1848.43 212.968 1844.59 210.984C1840.75 209 1837.77 206.184 1835.66 202.536C1833.61 198.888 1832.59 194.568 1832.59 189.576C1832.59 184.712 1833.58 180.456 1835.56 176.808C1837.61 173.16 1840.39 170.312 1843.91 168.264C1847.5 166.152 1851.56 165.096 1856.11 165.096C1859.43 165.096 1862.41 165.64 1865.03 166.728C1867.72 167.816 1869.99 169.384 1871.85 171.432C1873.77 173.48 1875.21 175.976 1876.17 178.92C1877.19 181.8 1877.71 185.064 1877.71 188.712C1877.71 189.864 1877.29 190.76 1876.46 191.4C1875.69 191.976 1874.57 192.264 1873.1 192.264H1842.28V185.352H1869.26L1867.72 186.792C1867.72 183.848 1867.27 181.384 1866.38 179.4C1865.55 177.416 1864.3 175.912 1862.63 174.888C1861.03 173.8 1859.02 173.256 1856.59 173.256C1853.9 173.256 1851.59 173.896 1849.67 175.176C1847.82 176.392 1846.38 178.152 1845.35 180.456C1844.39 182.696 1843.91 185.384 1843.91 188.52V189.192C1843.91 194.44 1845.13 198.376 1847.56 201C1850.06 203.56 1853.71 204.84 1858.51 204.84C1860.17 204.84 1862.03 204.648 1864.07 204.264C1866.19 203.816 1868.17 203.08 1870.03 202.056C1871.37 201.288 1872.55 200.968 1873.58 201.096C1874.6 201.16 1875.4 201.512 1875.98 202.152C1876.62 202.792 1877 203.592 1877.13 204.552C1877.26 205.448 1877.07 206.376 1876.55 207.336C1876.11 208.296 1875.31 209.128 1874.15 209.832C1871.91 211.24 1869.32 212.296 1866.38 213C1863.5 213.64 1860.81 213.96 1858.31 213.96ZM826.456 344.768C824.536 344.768 823.032 344.256 821.944 343.232C820.92 342.144 820.408 340.608 820.408 338.624V306.08H815.992C814.456 306.08 813.272 305.696 812.44 304.928C811.608 304.096 811.192 302.976 811.192 301.568C811.192 300.096 811.608 298.976 812.44 298.208C813.272 297.44 814.456 297.056 815.992 297.056H823.864L820.408 300.224V296.96C820.408 290.368 822.072 285.44 825.4 282.176C828.728 278.848 833.528 276.896 839.8 276.32L843.064 276.032C844.344 275.904 845.368 276.128 846.136 276.704C846.904 277.216 847.416 277.92 847.672 278.816C847.928 279.648 847.96 280.512 847.768 281.408C847.576 282.304 847.16 283.104 846.52 283.808C845.944 284.448 845.176 284.8 844.216 284.864L842.872 284.96C839.224 285.216 836.568 286.144 834.904 287.744C833.24 289.344 832.408 291.776 832.408 295.04V298.592L830.872 297.056H840.568C842.104 297.056 843.288 297.44 844.12 298.208C844.952 298.976 845.368 300.096 845.368 301.568C845.368 302.976 844.952 304.096 844.12 304.928C843.288 305.696 842.104 306.08 840.568 306.08H832.408V338.624C832.408 342.72 830.424 344.768 826.456 344.768ZM868.216 344.96C862.904 344.96 858.904 343.456 856.216 340.448C853.528 337.376 852.184 332.896 852.184 327.008V281.6C852.184 279.616 852.696 278.112 853.72 277.088C854.744 276.064 856.216 275.552 858.136 275.552C860.056 275.552 861.528 276.064 862.552 277.088C863.64 278.112 864.184 279.616 864.184 281.6V326.432C864.184 329.376 864.792 331.552 866.008 332.96C867.288 334.368 869.08 335.072 871.384 335.072C871.896 335.072 872.376 335.072 872.824 335.072C873.272 335.008 873.72 334.944 874.168 334.88C875.064 334.752 875.672 335.008 875.992 335.648C876.312 336.224 876.472 337.44 876.472 339.296C876.472 340.896 876.152 342.144 875.512 343.04C874.872 343.936 873.816 344.48 872.344 344.672C871.704 344.736 871.032 344.8 870.328 344.864C869.624 344.928 868.92 344.96 868.216 344.96ZM898.227 344.96C894.835 344.96 891.795 344.32 889.107 343.04C886.483 341.696 884.403 339.904 882.867 337.664C881.395 335.424 880.659 332.896 880.659 330.08C880.659 326.624 881.555 323.904 883.347 321.92C885.139 319.872 888.051 318.4 892.083 317.504C896.115 316.608 901.523 316.16 908.307 316.16H913.107V323.072H908.403C904.435 323.072 901.267 323.264 898.899 323.648C896.531 324.032 894.835 324.704 893.811 325.664C892.851 326.56 892.371 327.84 892.371 329.504C892.371 331.616 893.107 333.344 894.579 334.688C896.051 336.032 898.099 336.704 900.723 336.704C902.835 336.704 904.691 336.224 906.291 335.264C907.955 334.24 909.267 332.864 910.227 331.136C911.187 329.408 911.667 327.424 911.667 325.184V314.144C911.667 310.944 910.963 308.64 909.555 307.232C908.147 305.824 905.779 305.12 902.451 305.12C900.595 305.12 898.579 305.344 896.403 305.792C894.291 306.24 892.051 307.008 889.683 308.096C888.467 308.672 887.379 308.832 886.419 308.576C885.523 308.32 884.819 307.808 884.307 307.04C883.795 306.208 883.539 305.312 883.539 304.352C883.539 303.392 883.795 302.464 884.307 301.568C884.819 300.608 885.683 299.904 886.899 299.456C889.843 298.24 892.659 297.376 895.347 296.864C898.099 296.352 900.595 296.096 902.835 296.096C907.443 296.096 911.219 296.8 914.163 298.208C917.171 299.616 919.411 301.76 920.883 304.64C922.355 307.456 923.091 311.104 923.091 315.584V338.624C923.091 340.608 922.611 342.144 921.651 343.232C920.691 344.256 919.315 344.768 917.523 344.768C915.731 344.768 914.323 344.256 913.299 343.232C912.339 342.144 911.859 340.608 911.859 338.624V334.016H912.627C912.179 336.256 911.283 338.208 909.939 339.872C908.659 341.472 907.027 342.72 905.043 343.616C903.059 344.512 900.787 344.96 898.227 344.96ZM952.455 344.96C949.703 344.96 946.791 344.672 943.719 344.096C940.647 343.52 937.895 342.528 935.463 341.12C934.439 340.48 933.703 339.744 933.255 338.912C932.871 338.016 932.711 337.152 932.775 336.32C932.903 335.424 933.223 334.656 933.735 334.016C934.311 333.376 935.015 332.96 935.847 332.768C936.743 332.576 937.703 332.736 938.727 333.248C941.287 334.464 943.687 335.328 945.927 335.84C948.167 336.288 950.375 336.512 952.551 336.512C955.623 336.512 957.895 336 959.367 334.976C960.903 333.888 961.671 332.48 961.671 330.752C961.671 329.28 961.159 328.16 960.135 327.392C959.175 326.56 957.703 325.952 955.719 325.568L946.119 323.744C942.151 322.976 939.111 321.536 936.999 319.424C934.951 317.248 933.927 314.464 933.927 311.072C933.927 308 934.759 305.344 936.423 303.104C938.151 300.864 940.519 299.136 943.527 297.92C946.535 296.704 949.991 296.096 953.895 296.096C956.711 296.096 959.335 296.416 961.767 297.056C964.263 297.632 966.663 298.56 968.967 299.84C969.927 300.352 970.567 301.024 970.887 301.856C971.271 302.688 971.367 303.552 971.175 304.448C970.983 305.28 970.599 306.048 970.023 306.752C969.447 307.392 968.711 307.808 967.815 308C966.983 308.128 966.023 307.936 964.935 307.424C962.951 306.4 961.031 305.664 959.175 305.216C957.383 304.768 955.655 304.544 953.991 304.544C950.855 304.544 948.519 305.088 946.983 306.176C945.511 307.264 944.775 308.704 944.775 310.496C944.775 311.84 945.223 312.96 946.119 313.856C947.015 314.752 948.391 315.36 950.247 315.68L959.847 317.504C964.007 318.272 967.143 319.68 969.255 321.728C971.431 323.776 972.519 326.528 972.519 329.984C972.519 334.656 970.695 338.336 967.047 341.024C963.399 343.648 958.535 344.96 952.455 344.96ZM988.098 344.768C986.178 344.768 984.706 344.256 983.682 343.232C982.658 342.144 982.146 340.608 982.146 338.624V281.6C982.146 279.616 982.658 278.112 983.682 277.088C984.706 276.064 986.178 275.552 988.098 275.552C990.018 275.552 991.49 276.064 992.514 277.088C993.602 278.112 994.146 279.616 994.146 281.6V306.464H992.802C994.21 303.072 996.386 300.512 999.33 298.784C1002.34 296.992 1005.73 296.096 1009.51 296.096C1013.28 296.096 1016.39 296.8 1018.82 298.208C1021.25 299.616 1023.07 301.76 1024.29 304.64C1025.51 307.456 1026.11 311.04 1026.11 315.392V338.624C1026.11 340.608 1025.6 342.144 1024.58 343.232C1023.55 344.256 1022.08 344.768 1020.16 344.768C1018.24 344.768 1016.74 344.256 1015.65 343.232C1014.63 342.144 1014.11 340.608 1014.11 338.624V315.968C1014.11 312.32 1013.41 309.664 1012 308C1010.66 306.336 1008.55 305.504 1005.67 305.504C1002.15 305.504 999.33 306.624 997.218 308.864C995.17 311.04 994.146 313.952 994.146 317.6V338.624C994.146 342.72 992.13 344.768 988.098 344.768ZM1060 344.96C1055.07 344.96 1050.78 343.968 1047.13 341.984C1043.49 339.936 1040.67 337.056 1038.69 333.344C1036.7 329.632 1035.71 325.28 1035.71 320.288C1035.71 316.512 1036.25 313.152 1037.34 310.208C1038.49 307.2 1040.13 304.672 1042.24 302.624C1044.35 300.512 1046.91 298.912 1049.92 297.824C1052.93 296.672 1056.29 296.096 1060 296.096C1062.11 296.096 1064.38 296.384 1066.81 296.96C1069.31 297.536 1071.65 298.496 1073.82 299.84C1074.85 300.48 1075.52 301.248 1075.84 302.144C1076.16 303.04 1076.22 303.968 1076.03 304.928C1075.84 305.824 1075.42 306.624 1074.78 307.328C1074.21 307.968 1073.47 308.384 1072.57 308.576C1071.68 308.704 1070.69 308.48 1069.6 307.904C1068.19 307.072 1066.75 306.464 1065.28 306.08C1063.81 305.632 1062.4 305.408 1061.05 305.408C1058.94 305.408 1057.09 305.76 1055.49 306.464C1053.89 307.104 1052.51 308.064 1051.36 309.344C1050.27 310.56 1049.44 312.096 1048.86 313.952C1048.29 315.808 1048 317.952 1048 320.384C1048 325.12 1049.12 328.864 1051.36 331.616C1053.66 334.304 1056.89 335.648 1061.05 335.648C1062.4 335.648 1063.77 335.456 1065.18 335.072C1066.65 334.688 1068.13 334.08 1069.6 333.248C1070.69 332.672 1071.65 332.48 1072.48 332.672C1073.37 332.864 1074.11 333.312 1074.69 334.016C1075.26 334.656 1075.61 335.456 1075.74 336.416C1075.87 337.312 1075.74 338.208 1075.36 339.104C1075.04 340 1074.4 340.736 1073.44 341.312C1071.33 342.592 1069.09 343.52 1066.72 344.096C1064.35 344.672 1062.11 344.96 1060 344.96ZM1098.76 344.96C1095.37 344.96 1092.33 344.32 1089.64 343.04C1087.01 341.696 1084.93 339.904 1083.4 337.664C1081.93 335.424 1081.19 332.896 1081.19 330.08C1081.19 326.624 1082.09 323.904 1083.88 321.92C1085.67 319.872 1088.58 318.4 1092.61 317.504C1096.65 316.608 1102.05 316.16 1108.84 316.16H1113.64V323.072H1108.93C1104.97 323.072 1101.8 323.264 1099.43 323.648C1097.06 324.032 1095.37 324.704 1094.34 325.664C1093.38 326.56 1092.9 327.84 1092.9 329.504C1092.9 331.616 1093.64 333.344 1095.11 334.688C1096.58 336.032 1098.63 336.704 1101.25 336.704C1103.37 336.704 1105.22 336.224 1106.82 335.264C1108.49 334.24 1109.8 332.864 1110.76 331.136C1111.72 329.408 1112.2 327.424 1112.2 325.184V314.144C1112.2 310.944 1111.49 308.64 1110.09 307.232C1108.68 305.824 1106.31 305.12 1102.98 305.12C1101.13 305.12 1099.11 305.344 1096.93 305.792C1094.82 306.24 1092.58 307.008 1090.21 308.096C1089 308.672 1087.91 308.832 1086.95 308.576C1086.05 308.32 1085.35 307.808 1084.84 307.04C1084.33 306.208 1084.07 305.312 1084.07 304.352C1084.07 303.392 1084.33 302.464 1084.84 301.568C1085.35 300.608 1086.21 299.904 1087.43 299.456C1090.37 298.24 1093.19 297.376 1095.88 296.864C1098.63 296.352 1101.13 296.096 1103.37 296.096C1107.97 296.096 1111.75 296.8 1114.69 298.208C1117.7 299.616 1119.94 301.76 1121.41 304.64C1122.89 307.456 1123.62 311.104 1123.62 315.584V338.624C1123.62 340.608 1123.14 342.144 1122.18 343.232C1121.22 344.256 1119.85 344.768 1118.05 344.768C1116.26 344.768 1114.85 344.256 1113.83 343.232C1112.87 342.144 1112.39 340.608 1112.39 338.624V334.016H1113.16C1112.71 336.256 1111.81 338.208 1110.47 339.872C1109.19 341.472 1107.56 342.72 1105.57 343.616C1103.59 344.512 1101.32 344.96 1098.76 344.96ZM1141.95 344.768C1139.96 344.768 1138.43 344.256 1137.34 343.232C1136.31 342.144 1135.8 340.608 1135.8 338.624V302.336C1135.8 300.352 1136.31 298.848 1137.34 297.824C1138.36 296.8 1139.8 296.288 1141.66 296.288C1143.51 296.288 1144.95 296.8 1145.98 297.824C1147 298.848 1147.51 300.352 1147.51 302.336V308.384H1146.55C1147.45 304.544 1149.21 301.632 1151.83 299.648C1154.46 297.664 1157.95 296.48 1162.3 296.096C1163.64 295.968 1164.7 296.32 1165.47 297.152C1166.3 297.92 1166.78 299.136 1166.91 300.8C1167.03 302.4 1166.65 303.712 1165.75 304.736C1164.92 305.696 1163.64 306.272 1161.91 306.464L1159.8 306.656C1155.9 307.04 1152.95 308.256 1150.97 310.304C1148.99 312.288 1147.99 315.104 1147.99 318.752V338.624C1147.99 340.608 1147.48 342.144 1146.46 343.232C1145.43 344.256 1143.93 344.768 1141.95 344.768ZM1190.69 344.96C1186.6 344.96 1182.98 343.968 1179.85 341.984C1176.77 340 1174.37 337.184 1172.65 333.536C1170.92 329.824 1170.05 325.472 1170.05 320.48C1170.05 315.424 1170.92 311.104 1172.65 307.52C1174.37 303.872 1176.77 301.056 1179.85 299.072C1182.98 297.088 1186.6 296.096 1190.69 296.096C1194.6 296.096 1197.99 297.056 1200.87 298.976C1203.81 300.896 1205.8 303.424 1206.82 306.56H1205.77V281.6C1205.77 279.616 1206.28 278.112 1207.3 277.088C1208.33 276.064 1209.8 275.552 1211.72 275.552C1213.64 275.552 1215.11 276.064 1216.13 277.088C1217.22 278.112 1217.77 279.616 1217.77 281.6V338.624C1217.77 340.608 1217.25 342.144 1216.23 343.232C1215.21 344.256 1213.73 344.768 1211.81 344.768C1209.89 344.768 1208.42 344.256 1207.4 343.232C1206.37 342.144 1205.86 340.608 1205.86 338.624V331.136L1206.92 334.016C1205.96 337.344 1204.01 340 1201.06 341.984C1198.12 343.968 1194.66 344.96 1190.69 344.96ZM1194.05 335.84C1196.42 335.84 1198.5 335.264 1200.29 334.112C1202.09 332.96 1203.46 331.264 1204.42 329.024C1205.45 326.72 1205.96 323.872 1205.96 320.48C1205.96 315.36 1204.87 311.552 1202.69 309.056C1200.52 306.496 1197.64 305.216 1194.05 305.216C1191.69 305.216 1189.61 305.792 1187.81 306.944C1186.02 308.032 1184.61 309.728 1183.59 312.032C1182.63 314.272 1182.15 317.088 1182.15 320.48C1182.15 325.536 1183.24 329.376 1185.41 332C1187.59 334.56 1190.47 335.84 1194.05 335.84ZM1247.39 344.96C1244.64 344.96 1241.73 344.672 1238.66 344.096C1235.58 343.52 1232.83 342.528 1230.4 341.12C1229.38 340.48 1228.64 339.744 1228.19 338.912C1227.81 338.016 1227.65 337.152 1227.71 336.32C1227.84 335.424 1228.16 334.656 1228.67 334.016C1229.25 333.376 1229.95 332.96 1230.78 332.768C1231.68 332.576 1232.64 332.736 1233.66 333.248C1236.22 334.464 1238.62 335.328 1240.86 335.84C1243.1 336.288 1245.31 336.512 1247.49 336.512C1250.56 336.512 1252.83 336 1254.3 334.976C1255.84 333.888 1256.61 332.48 1256.61 330.752C1256.61 329.28 1256.1 328.16 1255.07 327.392C1254.11 326.56 1252.64 325.952 1250.66 325.568L1241.06 323.744C1237.09 322.976 1234.05 321.536 1231.94 319.424C1229.89 317.248 1228.86 314.464 1228.86 311.072C1228.86 308 1229.7 305.344 1231.36 303.104C1233.09 300.864 1235.46 299.136 1238.46 297.92C1241.47 296.704 1244.93 296.096 1248.83 296.096C1251.65 296.096 1254.27 296.416 1256.7 297.056C1259.2 297.632 1261.6 298.56 1263.9 299.84C1264.86 300.352 1265.5 301.024 1265.82 301.856C1266.21 302.688 1266.3 303.552 1266.11 304.448C1265.92 305.28 1265.54 306.048 1264.96 306.752C1264.38 307.392 1263.65 307.808 1262.75 308C1261.92 308.128 1260.96 307.936 1259.87 307.424C1257.89 306.4 1255.97 305.664 1254.11 305.216C1252.32 304.768 1250.59 304.544 1248.93 304.544C1245.79 304.544 1243.46 305.088 1241.92 306.176C1240.45 307.264 1239.71 308.704 1239.71 310.496C1239.71 311.84 1240.16 312.96 1241.06 313.856C1241.95 314.752 1243.33 315.36 1245.18 315.68L1254.78 317.504C1258.94 318.272 1262.08 319.68 1264.19 321.728C1266.37 323.776 1267.46 326.528 1267.46 329.984C1267.46 334.656 1265.63 338.336 1261.98 341.024C1258.34 343.648 1253.47 344.96 1247.39 344.96Z" fill="white"/>
<g filter="url(#filter0_d_101_3)">
<rect x="476.17" y="87.8775" width="248.776" height="354.103" rx="20" transform="rotate(5 476.17 87.8775)" fill="white"/>
</g>
<path d="M545.904 286.142C544.884 286.052 544.075 285.746 543.479 285.223C542.924 284.703 542.617 284.055 542.557 283.279C542.5 282.46 542.727 281.581 543.237 280.64L563.332 244.815C563.992 243.631 564.727 242.817 565.537 242.374C566.393 241.892 567.331 241.696 568.351 241.785C569.329 241.871 570.176 242.223 570.893 242.843C571.656 243.424 572.259 244.354 572.704 245.635L586.336 284.411C586.718 285.43 586.81 286.337 586.612 287.133C586.414 287.93 585.997 288.536 585.361 288.951C584.729 289.324 583.924 289.468 582.946 289.382C581.756 289.278 580.845 288.92 580.214 288.308C579.628 287.657 579.132 286.715 578.726 285.48L575.424 275.49L578.672 278.023L551.767 275.669L555.405 273.739L550.482 283.009C549.822 284.193 549.17 285.035 548.527 285.536C547.883 286.036 547.009 286.238 545.904 286.142ZM567.404 251.146L556.62 271.596L555.141 269.411L576.436 271.274L574.663 273.175L567.531 251.157L567.404 251.146ZM603.41 291.301C600.817 291.074 598.712 290.419 597.093 289.335C595.479 288.209 594.33 286.652 593.647 284.665C593.007 282.682 592.811 280.266 593.061 277.418L594.41 261.989C594.529 260.629 594.957 259.66 595.693 259.082C596.432 258.462 597.44 258.207 598.715 258.319C599.99 258.43 600.938 258.856 601.558 259.595C602.225 260.296 602.499 261.326 602.38 262.687L601.019 278.243C600.826 280.453 601.129 282.129 601.928 283.27C602.728 284.41 604.105 285.066 606.061 285.237C608.186 285.423 609.992 284.853 611.478 283.527C612.968 282.158 613.82 280.263 614.032 277.84L615.259 263.813C615.378 262.453 615.805 261.484 616.541 260.906C617.281 260.285 618.288 260.031 619.563 260.143C620.838 260.254 621.786 260.68 622.407 261.419C623.073 262.12 623.347 263.15 623.228 264.511L621.12 288.611C620.882 291.331 619.466 292.578 616.874 292.351C615.641 292.243 614.714 291.819 614.094 291.08C613.477 290.298 613.226 289.248 613.342 287.93L613.765 283.085L614.491 285.075C613.397 287.292 611.883 288.937 609.947 290.01C608.054 291.087 605.875 291.517 603.41 291.301Z" fill="black"/>
<g filter="url(#filter1_d_101_3)">
<rect x="234.654" y="79.1996" width="248.776" height="354.103" rx="20" transform="rotate(-10 234.654 79.1996)" fill="white"/>
</g>
<path d="M376.364 262.672C375.061 262.902 373.99 262.722 373.149 262.134C372.302 261.504 371.763 260.537 371.533 259.235L365.121 222.868C364.884 221.523 365.042 220.455 365.596 219.664C366.184 218.824 367.13 218.289 368.432 218.059C369.735 217.83 370.785 218.013 371.583 218.609C372.416 219.155 372.951 220.1 373.188 221.445L379.123 255.102L397.401 251.879C398.536 251.679 399.449 251.821 400.141 252.306C400.875 252.783 401.338 253.568 401.531 254.66C401.723 255.753 401.56 256.669 401.041 257.411C400.556 258.103 399.747 258.549 398.612 258.749L376.364 262.672ZM410.888 257.039C409.627 257.262 408.594 257.054 407.788 256.416C406.983 255.778 406.461 254.787 406.224 253.443L402.145 230.311C401.901 228.925 402.052 227.815 402.598 226.982C403.137 226.107 404.037 225.559 405.297 225.336C406.558 225.114 407.591 225.322 408.397 225.96C409.237 226.548 409.779 227.536 410.024 228.922L414.103 252.053C414.34 253.398 414.189 254.508 413.65 255.383C413.111 256.257 412.19 256.81 410.888 257.039ZM404.264 219.475C402.793 219.734 401.575 219.581 400.608 219.015C399.677 218.399 399.096 217.44 398.866 216.137C398.629 214.793 398.847 213.693 399.519 212.838C400.234 211.975 401.326 211.415 402.797 211.155C404.31 210.888 405.528 211.042 406.452 211.615C407.377 212.189 407.957 213.148 408.194 214.493C408.424 215.795 408.206 216.895 407.541 217.792C406.869 218.647 405.777 219.208 404.264 219.475Z" fill="black"/>
<g filter="url(#filter2_d_101_3)">
<rect x="24" y="148.942" width="248.776" height="354.103" rx="20" transform="rotate(-27 24 148.942)" fill="white"/>
</g>
<path d="M201.003 288.821C199.9 289.383 198.89 289.515 197.972 289.216C197.091 288.899 196.361 288.169 195.78 287.029L178.492 253.099C177.891 251.921 177.721 250.882 177.981 249.983C178.26 249.027 178.875 248.307 179.826 247.823C180.7 247.377 181.433 247.219 182.026 247.348C182.637 247.42 183.44 247.681 184.436 248.131L220.717 265.344L219.234 266.1L205.491 239.127C204.929 238.025 204.779 237.024 205.039 236.125C205.337 235.207 206.038 234.467 207.14 233.905C208.243 233.344 209.234 233.221 210.114 233.539C210.994 233.857 211.715 234.567 212.277 235.669L229.71 269.884C230.253 270.949 230.413 271.921 230.19 272.8C229.968 273.679 229.401 274.352 228.488 274.816C227.614 275.262 226.823 275.449 226.117 275.378C225.448 275.288 224.616 275.018 223.621 274.567L187.397 257.325L188.822 256.599L202.566 283.571C203.147 284.712 203.307 285.732 203.047 286.63C202.786 287.529 202.105 288.259 201.003 288.821ZM253.355 262.29C250.199 263.898 247.181 264.694 244.3 264.677C241.418 264.661 238.798 263.889 236.439 262.361C234.119 260.814 232.203 258.558 230.692 255.593C229.22 252.703 228.521 249.875 228.595 247.108C228.708 244.321 229.5 241.787 230.971 239.505C232.46 237.165 234.555 235.308 237.254 233.933C239.231 232.926 241.163 232.348 243.051 232.2C244.977 232.033 246.801 232.277 248.524 232.931C250.284 233.567 251.895 234.614 253.356 236.072C254.836 237.473 256.128 239.257 257.232 241.423C257.581 242.108 257.605 242.766 257.304 243.398C257.022 243.972 256.444 244.482 255.57 244.928L237.265 254.255L235.173 250.149L251.197 241.984L250.72 243.305C249.829 241.556 248.818 240.228 247.685 239.321C246.59 238.394 245.394 237.878 244.095 237.774C242.816 237.612 241.453 237.899 240.009 238.635C238.412 239.448 237.237 240.526 236.484 241.867C235.75 243.151 235.427 244.632 235.516 246.311C235.624 247.932 236.152 249.674 237.101 251.537L237.305 251.936C238.893 255.053 240.807 257.023 243.046 257.846C245.303 258.611 247.857 258.267 250.709 256.815C251.697 256.311 252.741 255.635 253.842 254.787C254.961 253.882 255.916 252.844 256.709 251.674C257.275 250.811 257.881 250.263 258.528 250.029C259.156 249.757 259.738 249.724 260.273 249.93C260.847 250.116 261.317 250.475 261.684 251.007C262.031 251.5 262.198 252.11 262.185 252.835C262.209 253.541 261.986 254.277 261.514 255.044C260.61 256.558 259.39 257.97 257.854 259.279C256.337 260.531 254.837 261.535 253.355 262.29Z" fill="black"/>
</g>
<defs>
<filter id="filter0_d_101_3" x="426.974" y="79.5433" width="315.36" height="411.107" filterUnits="userSpaceOnUse" color-interpolation-filters="sRGB">
<feFlood flood-opacity="0" result="BackgroundImageFix"/>
<feColorMatrix in="SourceAlpha" type="matrix" values="0 0 0 0 0 0 0 0 0 0 0 0 0 0 0 0 0 0 127 0" result="hardAlpha"/>
<feOffset dy="10"/>
<feGaussianBlur stdDeviation="10"/>
<feComposite in2="hardAlpha" operator="out"/>
<feColorMatrix type="matrix" values="0 0 0 0 0 0 0 0 0 0 0 0 0 0 0 0 0 0 0.15 0"/>
<feBlend mode="normal" in2="BackgroundImageFix" result="effect1_dropShadow_101_3"/>
<feBlend mode="normal" in="SourceGraphic" in2="effect1_dropShadow_101_3" result="shape"/>
</filter>
<filter id="filter1_d_101_3" x="217.82" y="29.1658" width="340.155" height="425.592" filterUnits="userSpaceOnUse" color-interpolation-filters="sRGB">
<feFlood flood-opacity="0" result="BackgroundImageFix"/>
<feColorMatrix in="SourceAlpha" type="matrix" values="0 0 0 0 0 0 0 0 0 0 0 0 0 0 0 0 0 0 127 0" result="hardAlpha"/>
<feOffset dy="10"/>
<feGaussianBlur stdDeviation="10"/>
<feComposite in2="hardAlpha" operator="out"/>
<feColorMatrix type="matrix" values="0 0 0 0 0 0 0 0 0 0 0 0 0 0 0 0 0 0 0.15 0"/>
<feBlend mode="normal" in2="BackgroundImageFix" result="effect1_dropShadow_101_3"/>
<feBlend mode="normal" in="SourceGraphic" in2="effect1_dropShadow_101_3" result="shape"/>
</filter>
<filter id="filter2_d_101_3" x="10.8957" y="32.8957" width="408.629" height="454.659" filterUnits="userSpaceOnUse" color-interpolation-filters="sRGB">
<feFlood flood-opacity="0" result="BackgroundImageFix"/>
<feColorMatrix in="SourceAlpha" type="matrix" values="0 0 0 0 0 0 0 0 0 0 0 0 0 0 0 0 0 0 127 0" result="hardAlpha"/>
<feOffset dy="10"/>
<feGaussianBlur stdDeviation="10"/>
<feComposite in2="hardAlpha" operator="out"/>
<feColorMatrix type="matrix" values="0 0 0 0 0 0 0 0 0 0 0 0 0 0 0 0 0 0 0.15 0"/>
<feBlend mode="normal" in2="BackgroundImageFix" result="effect1_dropShadow_101_3"/>
<feBlend mode="normal" in="SourceGraphic" in2="effect1_dropShadow_101_3" result="shape"/>
</filter>
<linearGradient id="paint0_linear_101_3" x1="-344.791" y1="-119.471" x2="1376.24" y2="1312.63" gradientUnits="userSpaceOnUse">
<stop stop-color="#DDD6F3"/>
<stop offset="1" stop-color="#FAACA8"/>
</linearGradient>
<clipPath id="clip0_101_3">
<rect width="2000" height="500" fill="white"/>
</clipPath>
</defs>
</svg>
